<svg width="34" height="34" viewBox="0 0 34 34" fill="none" xmlns="http://www.w3.org/2000/svg">
<path d="M32.3045 9.81938C31.9793 9.64586 31.6266 9.52976 31.2619 9.4762C29.5133 9.21785 27.8864 10.426 27.628 12.1745C27.5074 12.9911 27.7069 13.8228 28.185 14.4957L24.7772 17.5898C23.5904 16.277 21.564 16.1747 20.2512 17.3615C19.9636 17.6215 19.7256 17.9315 19.5487 18.2764L15.6192 15.1047C15.7086 13.3381 14.349 11.8334 12.5824 11.744C10.8157 11.6545 9.31106 13.0141 9.22162 14.7808C9.21138 14.9832 9.22038 15.1863 9.24848 15.387L5.54456 19.1771C4.34041 17.8828 2.31496 17.8096 1.02065 19.0139C-0.273665 20.218 -0.346779 22.2435 0.857441 23.5378C2.06159 24.8321 4.08704 24.9052 5.38135 23.701C5.80944 23.3027 6.12026 22.7948 6.28008 22.2324C6.4399 21.6699 6.44261 21.0745 6.28792 20.5106L9.85667 16.859C10.9157 18.2752 12.9222 18.5648 14.3383 17.5058C14.6646 17.2618 14.9413 16.9579 15.1536 16.6102L19.2 19.8762C19.2673 21.411 20.4146 22.6821 21.9346 22.9056C22.091 22.9286 22.2489 22.9402 22.407 22.9403C24.1776 22.9349 25.6087 21.4953 25.6034 19.7247C25.6025 19.4509 25.5667 19.1783 25.4966 18.9136L29.2886 15.4707C30.8492 16.3035 32.7894 15.7135 33.6222 14.1529C34.455 12.5924 33.865 10.6522 32.3045 9.81938ZM4.92005 21.6082C4.78115 22.5593 3.89748 23.2177 2.94642 23.0787C1.99535 22.9398 1.33689 22.0562 1.47587 21.1051C1.61478 20.154 2.49844 19.4956 3.44951 19.6346C3.45038 19.6347 3.45126 19.6348 3.45214 19.6349C4.40167 19.7757 5.0583 20.6583 4.92005 21.6082ZM14.1417 15.193C14.0016 16.1431 13.118 16.7999 12.1678 16.6599C11.2177 16.5199 10.5609 15.6362 10.701 14.6861C10.8265 13.8343 11.5562 13.2027 12.4172 13.2006C12.5029 13.2007 12.5885 13.2069 12.6733 13.2194C13.6232 13.3599 14.2801 14.2428 14.1417 15.193ZM24.1208 19.9895C23.9808 20.9396 23.0972 21.5963 22.147 21.4563C21.1969 21.3163 20.5401 20.4327 20.6802 19.4826C20.8057 18.6308 21.5356 17.9991 22.3965 17.9971C22.4822 17.9971 22.5679 18.0034 22.6527 18.0159C23.603 18.1555 24.2602 19.039 24.1205 19.9894V19.9895H24.1208ZM32.5168 12.8976C32.3776 13.8484 31.4938 14.5063 30.5431 14.367C29.5923 14.2277 28.9344 13.344 29.0737 12.3932C29.213 11.4424 30.0967 10.7846 31.0475 10.9238L31.0489 10.9241C31.9992 11.0638 32.6563 11.9474 32.5168 12.8976H32.5168Z" fill="#453B6C"/>
</svg>
