<svg width="34" height="34" viewBox="0 0 34 34" fill="none" xmlns="http://www.w3.org/2000/svg">
<path fill-rule="evenodd" clip-rule="evenodd" d="M25.3186 18.8999C23.8115 18.9007 22.3664 19.4998 21.3008 20.5654C20.2351 21.6311 19.6361 23.0762 19.6353 24.5832C19.6353 27.7208 22.1821 30.2676 25.3186 30.2676C28.4551 30.2676 31.0029 27.7208 31.0029 24.5832C31.0018 23.0761 30.4025 21.631 29.3367 20.5654C28.2709 19.4998 26.8257 18.9007 25.3186 18.8999ZM25.3186 21.0249C26.2623 21.0252 27.1673 21.4001 27.8347 22.0674C28.5022 22.7346 28.8774 23.6395 28.8779 24.5832C28.8782 25.2872 28.6696 25.9755 28.2786 26.561C27.8876 27.1465 27.3318 27.6028 26.6814 27.8724C26.031 28.142 25.3153 28.2126 24.6248 28.0754C23.9343 27.9382 23.3 27.5993 22.8021 27.1015C22.3042 26.6038 21.9651 25.9695 21.8277 25.2791C21.6902 24.5886 21.7607 23.8729 22.03 23.2224C22.2994 22.572 22.7556 22.016 23.341 21.6248C23.9263 21.2337 24.6145 21.0249 25.3186 21.0249Z" fill="#453B6C"/>
<path fill-rule="evenodd" clip-rule="evenodd" d="M20.9549 23.4901C18.3501 22.8388 15.6222 22.8618 13.0287 23.557L13.5769 25.6108L13.5929 25.6066C15.8336 25.0083 18.1896 24.9893 20.4396 25.5513L20.9549 23.4901Z" fill="#453B6C"/>
<path fill-rule="evenodd" clip-rule="evenodd" d="M8.68187 18.8999C7.17472 18.9007 5.72953 19.4998 4.66372 20.5654C3.59791 21.631 2.99862 23.0761 2.9975 24.5832C2.9975 27.7208 5.54537 30.2676 8.68187 30.2676C11.8184 30.2676 14.3652 27.7208 14.3652 24.5832C14.3643 23.0762 13.7653 21.6311 12.6996 20.5654C11.634 19.4998 10.1889 18.9007 8.68187 18.8999ZM8.68187 21.0249C9.61509 21.041 10.5046 21.4231 11.1589 22.0887C11.8131 22.7544 12.1798 23.6504 12.1798 24.5837C12.1798 25.5171 11.8131 26.4131 11.1589 27.0788C10.5046 27.7444 9.61509 28.1265 8.68187 28.1426C7.73795 28.1423 6.83278 27.7672 6.16532 27.0998C5.49787 26.4323 5.12278 25.5271 5.1225 24.5832C5.12306 23.6395 5.49828 22.7346 6.1657 22.0673C6.83312 21.4001 7.73814 21.0252 8.68187 21.0249ZM17.0002 4.98114L22.0056 3.43945C22.5539 3.26993 23.1309 3.21333 23.7016 3.27306C24.2724 3.33279 24.8252 3.50761 25.3265 3.78697C25.8278 4.06632 26.2673 4.44441 26.6183 4.89839C26.9694 5.35237 27.2248 5.87281 27.3691 6.42827L29.7162 15.4245C29.7597 15.591 29.7621 15.7657 29.7232 15.9334C29.6843 16.1012 29.6051 16.2569 29.4927 16.3873C29.3802 16.5176 29.2377 16.6187 29.0775 16.6818C28.9172 16.7449 28.7441 16.7681 28.5729 16.7494C20.8804 15.9143 13.12 15.9143 5.42743 16.7494C5.25647 16.7674 5.08369 16.7437 4.92388 16.6804C4.76406 16.617 4.62195 16.5159 4.50971 16.3857C4.39746 16.2555 4.31842 16.1001 4.27933 15.9327C4.24024 15.7653 4.24227 15.5909 4.28525 15.4245L6.63231 6.42827C6.777 5.87305 7.03265 5.35289 7.38383 4.89915C7.73501 4.44542 8.17445 4.06751 8.67565 3.78821C9.17684 3.50892 9.72942 3.33403 10.3 3.27409C10.8707 3.21415 11.4475 3.2704 11.9958 3.43945L17.0002 4.98114ZM25.3121 6.96377C25.2394 6.6864 25.1113 6.42661 24.9356 6.2C24.7599 5.9734 24.5402 5.78465 24.2897 5.64511C24.0392 5.50557 23.7631 5.41812 23.4779 5.388C23.1928 5.35789 22.9045 5.38575 22.6304 5.46989L17.3126 7.10827C17.109 7.17094 16.8913 7.17094 16.6878 7.10827L11.37 5.46989C11.0959 5.38544 10.8075 5.35735 10.5223 5.38732C10.237 5.41729 9.96076 5.5047 9.71018 5.64428C9.45961 5.78386 9.23989 5.97273 9.06426 6.1995C8.88862 6.42627 8.76072 6.68625 8.68825 6.96377L6.72687 14.482C13.5606 13.8371 20.4398 13.8371 27.2735 14.482L25.3121 6.96377Z" fill="#453B6C"/>
<path fill-rule="evenodd" clip-rule="evenodd" d="M31.9326 15.0154L30.1508 14.7965C21.4166 13.7246 12.5844 13.7221 3.84964 14.7891L1.99664 15.0154C1.72073 15.0539 1.47098 15.1992 1.30119 15.4201C1.1314 15.641 1.05515 15.9197 1.08887 16.1962C1.12258 16.4728 1.26356 16.725 1.48145 16.8986C1.69933 17.0722 1.97668 17.1533 2.25377 17.1244L4.10783 16.8981C12.6708 15.8523 21.3293 15.8551 29.8915 16.9066L31.6733 17.1244C31.9519 17.1565 32.2318 17.0772 32.4521 16.9037C32.6724 16.7303 32.8152 16.4768 32.8494 16.1985C32.8836 15.9203 32.8064 15.6397 32.6347 15.4181C32.4629 15.1965 32.2106 15.0517 31.9326 15.0154Z" fill="#453B6C"/>
</svg>
