<svg width="34" height="34" viewBox="0 0 34 34" fill="none" xmlns="http://www.w3.org/2000/svg">
<path d="M25.2988 14.9139H20.753C20.7919 14.6631 20.8114 14.4097 20.8114 14.1559V9.29643C20.8099 7.98944 20.2901 6.7364 19.3659 5.81222C18.4417 4.88803 17.1887 4.36818 15.8817 4.3667H8.70122C7.39423 4.36818 6.14119 4.88803 5.217 5.81222C4.29282 6.7364 3.77296 7.98944 3.77148 9.29643V14.1559C3.77296 15.4629 4.29282 16.7159 5.217 17.6401C6.14119 18.5643 7.39423 19.0842 8.70122 19.0856H13.2482C13.2088 19.3364 13.1889 19.5898 13.1887 19.8436V24.7031C13.1902 26.0101 13.71 27.2632 14.6342 28.1873C15.5584 29.1115 16.8114 29.6313 18.1184 29.6328H25.2989C26.6059 29.6313 27.8589 29.1115 28.7831 28.1873C29.7073 27.2631 30.2271 26.0101 30.2286 24.7031V19.8436C30.2271 18.5366 29.7072 17.2836 28.7831 16.3594C27.8589 15.4353 26.6058 14.9154 25.2989 14.9139H25.2988ZM4.83405 14.1559V9.29643C4.83519 8.27113 5.24299 7.28816 5.96797 6.56315C6.69296 5.83814 7.67592 5.43031 8.70122 5.42913H15.8817C16.907 5.43029 17.8899 5.8381 18.6149 6.5631C19.3399 7.2881 19.7477 8.27107 19.7489 9.29637V14.1558C19.7478 15.1811 19.3399 16.1641 18.6149 16.8891C17.8899 17.6141 16.907 18.0219 15.8817 18.0231H8.70122C7.67592 18.0219 6.69295 17.6141 5.96795 16.8891C5.24296 16.1641 4.83514 15.1811 4.83398 14.1558L4.83405 14.1559ZM25.6972 21.0379H24.4023C24.049 22.2995 23.3918 23.4553 22.4883 24.4041C22.9412 24.7661 23.4309 25.0795 23.9494 25.3391L24.6721 25.702C24.7345 25.7333 24.79 25.7766 24.8357 25.8293C24.8813 25.8821 24.9161 25.9434 24.938 26.0096C24.96 26.0758 24.9687 26.1457 24.9636 26.2153C24.9586 26.2849 24.9398 26.3528 24.9085 26.4152C24.8772 26.4775 24.8339 26.5331 24.7812 26.5787C24.7284 26.6243 24.6671 26.6591 24.6009 26.6811C24.5347 26.703 24.4648 26.7117 24.3952 26.7067C24.3256 26.7016 24.2577 26.6829 24.1953 26.6516L23.4726 26.2886C22.8421 25.9736 22.2495 25.588 21.7062 25.1392C21.1645 25.5881 20.5735 25.9737 19.9445 26.2886L19.2218 26.6515C19.0958 26.7147 18.95 26.7253 18.8162 26.681C18.6824 26.6367 18.5718 26.541 18.5086 26.4151C18.4453 26.2892 18.4347 26.1433 18.4791 26.0095C18.5234 25.8758 18.619 25.7651 18.745 25.7019L19.4677 25.3391C19.9849 25.0799 20.4733 24.7669 20.9248 24.4051C20.3898 23.8378 19.9381 23.1974 19.5833 22.503C19.5516 22.4409 19.5325 22.3731 19.527 22.3035C19.5215 22.234 19.5298 22.164 19.5513 22.0977C19.5729 22.0313 19.6073 21.9699 19.6526 21.9168C19.6979 21.8638 19.7532 21.8202 19.8154 21.7885C19.8776 21.7568 19.9454 21.7377 20.0149 21.7322C20.0845 21.7267 20.1544 21.735 20.2208 21.7565C20.2871 21.7781 20.3486 21.8125 20.4016 21.8578C20.4547 21.9031 20.4983 21.9584 20.53 22.0206C20.8408 22.6285 21.2369 23.189 21.7063 23.6849C22.4255 22.9315 22.9676 22.0273 23.2931 21.0379H17.7199C17.579 21.0379 17.4438 20.982 17.3442 20.8823C17.2446 20.7827 17.1886 20.6476 17.1886 20.5067C17.1886 20.3658 17.2446 20.2306 17.3442 20.131C17.4438 20.0314 17.579 19.9754 17.7199 19.9754H21.1773V18.3701C21.1773 18.2292 21.2333 18.094 21.3329 17.9944C21.4325 17.8948 21.5676 17.8388 21.7085 17.8388C21.8494 17.8388 21.9846 17.8948 22.0842 17.9944C22.1838 18.094 22.2398 18.2292 22.2398 18.3701V19.9754H25.6972C25.8381 19.9754 25.9733 20.0313 26.0729 20.131C26.1725 20.2306 26.2285 20.3657 26.2285 20.5066C26.2285 20.6475 26.1725 20.7826 26.0729 20.8823C25.9733 20.9819 25.8381 21.0379 25.6972 21.0379Z" fill="#453B6C"/>
<path d="M13.2419 8.87236C13.0684 8.44331 12.7042 8.17676 12.2914 8.17676C11.8785 8.17676 11.5144 8.44331 11.3409 8.87243L9.04758 14.5456C9.02143 14.6103 9.00828 14.6795 9.00887 14.7492C9.00946 14.819 9.02379 14.888 9.05104 14.9522C9.07828 15.0164 9.11791 15.0746 9.16766 15.1235C9.21741 15.1725 9.27631 15.2111 9.34099 15.2372C9.40567 15.2634 9.47487 15.2765 9.54463 15.2759C9.6144 15.2753 9.68336 15.261 9.74759 15.2338C9.81181 15.2065 9.87004 15.1669 9.91895 15.1171C9.96787 15.0674 10.0065 15.0085 10.0326 14.9438L10.8925 12.8168H13.6904L14.5501 14.9438C14.5763 15.0085 14.6149 15.0674 14.6638 15.1171C14.7127 15.1669 14.771 15.2065 14.8352 15.2338C14.8994 15.261 14.9684 15.2753 15.0381 15.2759C15.1079 15.2765 15.1771 15.2634 15.2418 15.2372C15.3065 15.2111 15.3654 15.1725 15.4151 15.1235C15.4649 15.0746 15.5045 15.0164 15.5317 14.9522C15.559 14.888 15.5733 14.819 15.5739 14.7492C15.5745 14.6795 15.5614 14.6103 15.5352 14.5456L13.2419 8.87236ZM11.3219 11.7544L12.2915 9.35613L13.2609 11.7544H11.3219Z" fill="#453B6C"/>
</svg>
