<svg width="437" height="104" viewBox="0 0 437 104" fill="none" xmlns="http://www.w3.org/2000/svg">
<path d="M89.9568 13.2835C70.6401 13.4344 56.7844 7.55554 49.6918 2.90406C47.4065 1.40531 44.3306 1.29788 42.0088 2.73933C34.5632 7.36163 20.8208 13.2439 3.86786 13.3294C1.72302 13.3402 0.189667 14.6317 0.105516 16.775C-0.0881873 21.7083 -0.13935 30.6195 1.07808 35.4571C1.14971 35.7417 1.24836 36.0062 1.37775 36.2696C4.69987 43.0333 15.3298 56.4927 24.2635 63.8525C24.622 64.1478 25.1233 63.9802 25.1521 63.5167C25.3174 60.8648 24.2807 55.2317 26.3561 54.7528C37.4087 52.2022 60.5341 58.3236 61.5544 65.4653C61.7244 66.6555 54.0726 83.4895 37.9188 79.9186C36.5585 80.4287 33.1577 81.7891 31.6274 83.6595C30.9472 81.619 32.5116 79.1365 32.6476 78.0482C24.4363 71.7008 7.85239 52.593 3.90697 48.0631C3.67708 47.7992 3.32251 48.02 3.42143 48.3558C12.7742 80.0992 35.5606 98.5793 45.9107 103.894C66.9799 91.5089 76.0114 75.5481 78.4933 70.2808C79.0218 69.159 78.953 67.8921 78.4083 66.7781C63.5884 36.4718 37.0093 28.1037 25.0282 25.9022C21.7884 25.3069 21.7891 24.784 24.9854 23.9873C33.3338 21.9065 40.1187 18.3349 43.5267 16.366C45.0362 15.4939 46.7367 15.588 48.2074 16.5243C61.827 25.195 78.3983 25.9471 82.0791 26.0105C82.5371 26.0184 82.9649 26.2431 83.1885 26.6429C85.7935 31.3004 87.1009 41.0492 87.6886 46.2375C87.8275 47.4633 88.6867 47.5257 88.9826 46.3281C92.3369 32.755 91.9305 18.8511 91.5223 14.5852C91.4379 13.7036 90.8424 13.2765 89.9568 13.2835Z" fill="#F5F2F5"/>
<path d="M124.291 63.7413C121.568 63.7413 119.474 63.1746 118.01 62.0412C116.562 60.8921 115.696 59.1133 115.413 56.7049C115.366 56.1224 115.491 55.6817 115.791 55.3826C116.105 55.0677 116.546 54.9103 117.113 54.9103C117.68 54.9103 118.097 55.052 118.364 55.3353C118.648 55.6187 118.829 56.0437 118.907 56.6104C119.096 57.9957 119.592 58.9559 120.395 59.4911C121.213 60.0106 122.512 60.2703 124.291 60.2703H131.091C133.201 60.2703 134.641 59.8847 135.412 59.1133C136.199 58.3262 136.593 56.9016 136.593 54.8395C136.593 52.7459 136.192 51.3055 135.389 50.5184C134.602 49.7156 133.169 49.3142 131.091 49.3142H125.047C122.134 49.3142 119.978 48.6137 118.577 47.2127C117.192 45.8117 116.499 43.663 116.499 40.7665C116.499 37.8701 117.184 35.7292 118.553 34.344C119.938 32.9587 122.087 32.2661 124.999 32.2661H130.95C133.5 32.2661 135.46 32.8092 136.829 33.8954C138.214 34.9658 139.049 36.6265 139.332 38.8776C139.395 39.46 139.269 39.9086 138.954 40.2235C138.655 40.5225 138.214 40.6721 137.632 40.6721C137.081 40.6721 136.664 40.5304 136.38 40.2471C136.097 39.948 135.924 39.523 135.861 38.972C135.672 37.7599 135.2 36.9177 134.444 36.4455C133.704 35.9732 132.54 35.7371 130.95 35.7371H124.999C123.047 35.7371 121.717 36.0992 121.009 36.8233C120.316 37.5317 119.97 38.8461 119.97 40.7665C119.97 42.687 120.324 44.0172 121.032 44.757C121.757 45.4811 123.095 45.8432 125.047 45.8432H131.091C134.145 45.8432 136.404 46.5752 137.868 48.0391C139.332 49.5031 140.064 51.7699 140.064 54.8395C140.064 57.8933 139.332 60.1444 137.868 61.5926C136.404 63.0251 134.145 63.7413 131.091 63.7413H124.291Z" fill="#F5F2F5"/>
<path d="M150.341 73.2099C149.176 73.2099 148.594 72.6274 148.594 71.4626V42.0888C148.594 40.9397 149.176 40.3651 150.341 40.3651C151.49 40.3651 152.065 40.9397 152.065 42.0888V43.1986C152.867 42.2541 153.906 41.5458 155.181 41.0735C156.456 40.6013 157.96 40.3651 159.691 40.3651H161.486C164.556 40.3651 166.822 41.0971 168.286 42.5611C169.75 44.025 170.482 46.2918 170.482 49.3614V54.745C170.482 57.8146 169.75 60.0893 168.286 61.569C166.822 63.033 164.556 63.7649 161.486 63.7649H152.065V71.4626C152.065 72.6274 151.49 73.2099 150.341 73.2099ZM152.065 60.2939H161.486C163.611 60.2939 165.059 59.9004 165.831 59.1133C166.618 58.3262 167.011 56.8701 167.011 54.745V49.3614C167.011 47.2363 166.618 45.7881 165.831 45.0168C165.059 44.2297 163.611 43.8361 161.486 43.8361H159.691C157.535 43.8361 155.756 44.1274 154.355 44.7098C152.954 45.2765 152.191 46.1738 152.065 47.4016V60.2939Z" fill="#F5F2F5"/>
<path d="M181.488 53.47V54.7923C181.488 56.8859 181.882 58.3262 182.669 59.1133C183.456 59.9004 184.912 60.2939 187.037 60.2939H190.909C192.641 60.2939 193.908 60.1129 194.711 59.7509C195.53 59.3731 196.057 58.7198 196.293 57.791C196.419 57.2716 196.616 56.8701 196.883 56.5868C197.167 56.3035 197.584 56.1618 198.135 56.1618C198.717 56.1618 199.158 56.3192 199.457 56.634C199.756 56.9331 199.859 57.3739 199.764 57.9563C199.465 59.924 198.576 61.388 197.096 62.3482C195.632 63.2927 193.57 63.7649 190.909 63.7649H187.037C183.967 63.7649 181.693 63.033 180.213 61.569C178.749 60.105 178.017 57.8461 178.017 54.7923V49.3614C178.017 46.2446 178.749 43.9621 180.213 42.5139C181.693 41.0499 183.967 40.3337 187.037 40.3651H190.909C193.979 40.3651 196.246 41.0971 197.71 42.5611C199.174 44.0093 199.906 46.2761 199.906 49.3614V51.7227C199.906 52.8875 199.331 53.47 198.182 53.47H181.488ZM187.037 43.8361C184.912 43.8047 183.456 44.1825 182.669 44.9695C181.882 45.7566 181.488 47.2206 181.488 49.3614V49.999H196.435V49.3614C196.435 47.2363 196.041 45.7881 195.254 45.0168C194.483 44.2297 193.035 43.8361 190.909 43.8361H187.037Z" fill="#F5F2F5"/>
<path d="M210.911 53.47V54.7923C210.911 56.8859 211.305 58.3262 212.092 59.1133C212.879 59.9004 214.335 60.2939 216.46 60.2939H220.333C222.064 60.2939 223.331 60.1129 224.134 59.7509C224.953 59.3731 225.48 58.7198 225.716 57.791C225.842 57.2716 226.039 56.8701 226.307 56.5868C226.59 56.3035 227.007 56.1618 227.558 56.1618C228.14 56.1618 228.581 56.3192 228.88 56.634C229.179 56.9331 229.282 57.3739 229.187 57.9563C228.888 59.924 227.999 61.388 226.519 62.3482C225.055 63.2927 222.993 63.7649 220.333 63.7649H216.46C213.391 63.7649 211.116 63.033 209.636 61.569C208.172 60.105 207.44 57.8461 207.44 54.7923V49.3614C207.44 46.2446 208.172 43.9621 209.636 42.5139C211.116 41.0499 213.391 40.3337 216.46 40.3651H220.333C223.402 40.3651 225.669 41.0971 227.133 42.5611C228.597 44.0093 229.329 46.2761 229.329 49.3614V51.7227C229.329 52.8875 228.754 53.47 227.605 53.47H210.911ZM216.46 43.8361C214.335 43.8047 212.879 44.1825 212.092 44.9695C211.305 45.7566 210.911 47.2206 210.911 49.3614V49.999H225.858V49.3614C225.858 47.2363 225.464 45.7881 224.677 45.0168C223.906 44.2297 222.458 43.8361 220.333 43.8361H216.46Z" fill="#F5F2F5"/>
<path d="M245.883 63.7649C242.814 63.7649 240.539 63.033 239.059 61.569C237.595 60.0893 236.863 57.8146 236.863 54.745V49.3142C236.863 46.2446 237.588 43.9778 239.036 42.5139C240.5 41.0499 242.782 40.3337 245.883 40.3651H249.756C252.086 40.3651 253.904 40.7587 255.21 41.5458C256.517 42.3328 257.335 43.5449 257.666 45.182C257.776 45.7645 257.666 46.2131 257.335 46.528C257.021 46.8428 256.564 47.0002 255.966 47.0002C255.431 47.0002 255.037 46.8664 254.785 46.5988C254.533 46.3154 254.313 45.9219 254.124 45.4182C253.904 44.8357 253.455 44.4265 252.778 44.1903C252.117 43.9542 251.11 43.8361 249.756 43.8361H245.883C243.774 43.8047 242.318 44.1825 241.515 44.9695C240.728 45.7409 240.334 47.1891 240.334 49.3142V54.745C240.334 56.8701 240.728 58.3262 241.515 59.1133C242.318 59.9004 243.774 60.2939 245.883 60.2939H249.756C251.11 60.2939 252.117 60.1759 252.778 59.9398C253.455 59.7036 253.904 59.2865 254.124 58.6883C254.313 58.1688 254.533 57.7753 254.785 57.5077C255.037 57.2401 255.438 57.1063 255.989 57.1063C256.572 57.1063 257.021 57.2716 257.335 57.6021C257.666 57.917 257.776 58.3577 257.666 58.9244C257.335 60.5615 256.517 61.7815 255.21 62.5843C253.904 63.3714 252.086 63.7649 249.756 63.7649H245.883Z" fill="#F5F2F5"/>
<path d="M267.48 63.7649C266.315 63.7649 265.733 63.1825 265.733 62.0176V32.4078C265.733 31.2586 266.315 30.6841 267.48 30.6841C268.629 30.6841 269.204 31.2586 269.204 32.4078V43.3639C270.809 41.3647 273.352 40.3651 276.831 40.3651H278.153C281.223 40.3651 283.489 41.0971 284.953 42.5611C286.417 44.025 287.149 46.2918 287.149 49.3614V62.0176C287.149 63.1825 286.575 63.7649 285.426 63.7649C284.261 63.7649 283.678 63.1825 283.678 62.0176V49.3614C283.678 47.2363 283.277 45.7881 282.474 45.0168C281.687 44.2297 280.247 43.8361 278.153 43.8361H276.831C274.753 43.8361 273.013 44.1116 271.612 44.6626C270.211 45.1978 269.408 46.0478 269.204 47.2127V62.0176C269.204 63.1825 268.629 63.7649 267.48 63.7649Z" fill="#F5F2F5"/>
<path d="M304.104 63.7413C301.381 63.7413 299.287 63.1746 297.823 62.0412C296.375 60.8921 295.509 59.1133 295.226 56.7049C295.179 56.1224 295.305 55.6817 295.604 55.3826C295.919 55.0677 296.359 54.9103 296.926 54.9103C297.493 54.9103 297.91 55.052 298.178 55.3353C298.461 55.6187 298.642 56.0437 298.721 56.6104C298.91 57.9957 299.405 58.9559 300.208 59.4911C301.027 60.0106 302.326 60.2703 304.104 60.2703H310.905C313.014 60.2703 314.454 59.8847 315.226 59.1133C316.013 58.3262 316.406 56.9016 316.406 54.8395C316.406 52.7459 316.005 51.3055 315.202 50.5184C314.415 49.7156 312.983 49.3142 310.905 49.3142H304.86C301.948 49.3142 299.791 48.6137 298.39 47.2127C297.005 45.8117 296.312 43.663 296.312 40.7665C296.312 37.8701 296.997 35.7292 298.367 34.344C299.752 32.9587 301.901 32.2661 304.813 32.2661H310.763C313.313 32.2661 315.273 32.8092 316.642 33.8954C318.028 34.9658 318.862 36.6265 319.145 38.8776C319.208 39.46 319.082 39.9086 318.768 40.2235C318.469 40.5225 318.028 40.6721 317.445 40.6721C316.894 40.6721 316.477 40.5304 316.194 40.2471C315.911 39.948 315.737 39.523 315.674 38.972C315.485 37.7599 315.013 36.9177 314.258 36.4455C313.518 35.9732 312.353 35.7371 310.763 35.7371H304.813C302.861 35.7371 301.531 36.0992 300.822 36.8233C300.13 37.5317 299.783 38.8461 299.783 40.7665C299.783 42.687 300.137 44.0172 300.846 44.757C301.57 45.4811 302.908 45.8432 304.86 45.8432H310.905C313.959 45.8432 316.217 46.5752 317.681 48.0391C319.145 49.5031 319.877 51.7699 319.877 54.8395C319.877 57.8933 319.145 60.1444 317.681 61.5926C316.217 63.0251 313.959 63.7413 310.905 63.7413H304.104Z" fill="#F5F2F5"/>
<path d="M330.154 63.7649C328.989 63.7649 328.407 63.1825 328.407 62.0176V32.4078C328.407 31.2586 328.989 30.6841 330.154 30.6841C331.303 30.6841 331.878 31.2586 331.878 32.4078V43.3639C333.484 41.3647 336.026 40.3651 339.505 40.3651H340.827C343.897 40.3651 346.163 41.0971 347.627 42.5611C349.091 44.025 349.823 46.2918 349.823 49.3614V62.0176C349.823 63.1825 349.249 63.7649 348.1 63.7649C346.935 63.7649 346.352 63.1825 346.352 62.0176V49.3614C346.352 47.2363 345.951 45.7881 345.148 45.0168C344.361 44.2297 342.921 43.8361 340.827 43.8361H339.505C337.427 43.8361 335.687 44.1116 334.286 44.6626C332.885 45.1978 332.083 46.0478 331.878 47.2127V62.0176C331.878 63.1825 331.303 63.7649 330.154 63.7649Z" fill="#F5F2F5"/>
<path d="M359.954 36.351C358.601 36.351 357.924 35.6584 357.924 34.2732V32.9981C357.924 31.6443 358.601 30.9674 359.954 30.9674H361.23C362.536 30.9674 363.189 31.6443 363.189 32.9981V34.2732C363.189 35.6584 362.536 36.351 361.23 36.351H359.954ZM360.592 63.7649C359.427 63.7649 358.845 63.1825 358.845 62.0176V42.0888C358.845 40.9397 359.427 40.3651 360.592 40.3651C361.741 40.3651 362.316 40.9397 362.316 42.0888V62.0176C362.316 63.1825 361.741 63.7649 360.592 63.7649Z" fill="#F5F2F5"/>
<path d="M374.307 53.47V54.7923C374.307 56.8859 374.7 58.3262 375.487 59.1133C376.274 59.9004 377.731 60.2939 379.856 60.2939H383.728C385.46 60.2939 386.727 60.1129 387.53 59.7509C388.348 59.3731 388.876 58.7198 389.112 57.791C389.238 57.2716 389.434 56.8701 389.702 56.5868C389.985 56.3035 390.402 56.1618 390.953 56.1618C391.536 56.1618 391.977 56.3192 392.276 56.634C392.575 56.9331 392.677 57.3739 392.583 57.9563C392.284 59.924 391.394 61.388 389.914 62.3482C388.451 63.2927 386.388 63.7649 383.728 63.7649H379.856C376.786 63.7649 374.511 63.033 373.032 61.569C371.568 60.105 370.836 57.8461 370.836 54.7923V49.3614C370.836 46.2446 371.568 43.9621 373.032 42.5139C374.511 41.0499 376.786 40.3337 379.856 40.3651H383.728C386.798 40.3651 389.064 41.0971 390.528 42.5611C391.992 44.0093 392.724 46.2761 392.724 49.3614V51.7227C392.724 52.8875 392.15 53.47 391.001 53.47H374.307ZM379.856 43.8361C377.731 43.8047 376.274 44.1825 375.487 44.9695C374.7 45.7566 374.307 47.2206 374.307 49.3614V49.999H389.253V49.3614C389.253 47.2363 388.86 45.7881 388.073 45.0168C387.301 44.2297 385.853 43.8361 383.728 43.8361H379.856Z" fill="#F5F2F5"/>
<path d="M408.145 63.7649C405.8 63.7649 404.06 63.1982 402.927 62.0649C401.794 60.9157 401.227 59.1684 401.227 56.8229V32.4078C401.227 31.2586 401.809 30.6841 402.974 30.6841C404.123 30.6841 404.698 31.2586 404.698 32.4078V56.8229C404.698 58.1924 404.926 59.1133 405.383 59.5856C405.855 60.0578 406.776 60.2939 408.145 60.2939C409.326 60.2939 409.916 60.8685 409.916 62.0176C409.948 63.1825 409.358 63.7649 408.145 63.7649Z" fill="#F5F2F5"/>
<path d="M423.76 63.7649C420.69 63.7649 418.416 63.033 416.936 61.569C415.472 60.0893 414.74 57.8146 414.74 54.745V49.3614C414.74 46.2918 415.472 44.025 416.936 42.5611C418.416 41.0971 420.69 40.3651 423.76 40.3651H433.158V32.4078C433.158 31.2586 433.74 30.6841 434.905 30.6841C436.054 30.6841 436.628 31.2586 436.628 32.4078V62.0176C436.628 63.1825 436.054 63.7649 434.905 63.7649C433.74 63.7649 433.158 63.1825 433.158 62.0176V61.1204C432.433 61.9862 431.457 62.6473 430.23 63.1038C429.002 63.5446 427.443 63.7649 425.554 63.7649H423.76ZM423.76 60.2939H425.554C427.758 60.2939 429.576 59.987 431.009 59.3731C432.441 58.7591 433.158 57.8225 433.158 56.5632V43.8361H423.76C421.635 43.8361 420.179 44.2376 419.392 45.0404C418.604 45.8275 418.211 47.2678 418.211 49.3614V54.745C418.211 56.8701 418.604 58.3262 419.392 59.1133C420.194 59.9004 421.65 60.2939 423.76 60.2939Z" fill="#F5F2F5"/>
<circle cx="33.5054" cy="63.0377" r="2.72063" transform="rotate(7.78504 33.5054 63.0377)" fill="#F5F2F5"/>
<circle cx="43.0303" cy="63.6534" r="2.72063" transform="rotate(7.78504 43.0303 63.6534)" fill="#F5F2F5"/>
<circle cx="51.4233" cy="67.5465" r="2.72063" transform="rotate(7.78504 51.4233 67.5465)" fill="#F5F2F5"/>
</svg>
