<svg width="34" height="34" viewBox="0 0 34 34" fill="none" xmlns="http://www.w3.org/2000/svg">
<path fill-rule="evenodd" clip-rule="evenodd" d="M25.4774 6.30409C25.7994 6.73259 25.9736 7.25413 25.9736 7.79017C25.9736 8.32621 25.7994 8.84774 25.4774 9.27625C25.3259 9.50239 25.2668 9.778 25.3123 10.0464C25.3578 10.3147 25.5045 10.5555 25.7221 10.719C25.9397 10.8825 26.2117 10.9564 26.4822 10.9255C26.7526 10.8945 27.0009 10.7611 27.176 10.5527C27.754 9.78342 28.0968 8.82717 28.0968 7.79017C28.0968 6.75459 27.754 5.79834 27.176 5.02909C27.0942 4.91243 26.9898 4.8134 26.869 4.73789C26.7483 4.66238 26.6135 4.61193 26.4728 4.58954C26.3322 4.56716 26.1884 4.57328 26.0501 4.60756C25.9119 4.64184 25.7819 4.70358 25.668 4.78909C25.5541 4.87461 25.4585 4.98216 25.387 5.10535C25.3155 5.22854 25.2694 5.36486 25.2517 5.5062C25.2339 5.64753 25.2447 5.791 25.2835 5.92807C25.3222 6.06514 25.3882 6.19301 25.4774 6.30409ZM6.82412 5.02909C6.22522 5.82489 5.90196 6.79418 5.90329 7.79017C5.90329 8.82717 6.24612 9.78342 6.82412 10.5527C6.99522 10.7728 7.24597 10.9168 7.52231 10.9538C7.79865 10.9907 8.07843 10.9175 8.3013 10.75C8.52418 10.5825 8.6723 10.3342 8.71372 10.0585C8.75514 9.78276 8.68654 9.50183 8.52271 9.27625C8.20065 8.84774 8.02652 8.32621 8.02652 7.79017C8.02652 7.25413 8.20065 6.73259 8.52271 6.30409C8.6119 6.19301 8.67784 6.06514 8.71662 5.92807C8.7554 5.791 8.76622 5.64753 8.74843 5.5062C8.73065 5.36486 8.68463 5.22854 8.6131 5.10535C8.54158 4.98216 8.44601 4.87461 8.33208 4.78909C8.21816 4.70358 8.0882 4.64184 7.94994 4.60756C7.81167 4.57328 7.66793 4.56716 7.52725 4.58954C7.38657 4.61193 7.25183 4.66238 7.13104 4.73789C7.01025 4.8134 6.90587 4.91243 6.82412 5.02909ZM29.1366 4.88742C29.7444 5.69775 30.1042 6.70217 30.1042 7.79159C30.1042 8.881 29.7444 9.88542 29.1366 10.6958C29.0474 10.8068 28.9815 10.9347 28.9427 11.0718C28.9039 11.2088 28.8931 11.3523 28.9109 11.4936C28.9287 11.635 28.9747 11.7713 29.0462 11.8945C29.1178 12.0177 29.2133 12.1252 29.3273 12.2107C29.4412 12.2963 29.5711 12.358 29.7094 12.3923C29.8477 12.4266 29.9914 12.4327 30.1321 12.4103C30.2728 12.3879 30.4075 12.3375 30.5283 12.2619C30.6491 12.1864 30.7535 12.0874 30.8352 11.9708C31.7107 10.8063 32.2292 9.35984 32.2292 7.79159C32.2292 6.22334 31.7107 4.77692 30.8352 3.61242C30.7535 3.49576 30.6491 3.39673 30.5283 3.32122C30.4075 3.24572 30.2728 3.19527 30.1321 3.17288C29.9914 3.15049 29.8477 3.15662 29.7094 3.1909C29.5711 3.22518 29.4412 3.28691 29.3273 3.37243C29.2133 3.45794 29.1178 3.56549 29.0462 3.68869C28.9747 3.81188 28.9287 3.94819 28.9109 4.08953C28.8931 4.23086 28.9039 4.37433 28.9427 4.5114C28.9815 4.64847 29.0474 4.77635 29.1366 4.88742ZM3.16487 3.61242C2.28937 4.77692 1.77087 6.22334 1.77087 7.79159C1.77087 9.35984 2.28937 10.8063 3.16487 11.9708C3.24662 12.0874 3.351 12.1864 3.47179 12.2619C3.59258 12.3375 3.72732 12.3879 3.868 12.4103C4.00868 12.4327 4.15242 12.4266 4.29069 12.3923C4.42895 12.358 4.55891 12.2963 4.67283 12.2107C4.78676 12.1252 4.88233 12.0177 4.95385 11.8945C5.02538 11.7713 5.0714 11.635 5.08918 11.4936C5.10696 11.3523 5.09615 11.2088 5.05737 11.0718C5.01859 10.9347 4.95265 10.8068 4.86346 10.6958C4.25571 9.88542 3.89587 8.881 3.89587 7.79159C3.89587 6.70217 4.25571 5.69775 4.86346 4.88742C4.95265 4.77635 5.01859 4.64847 5.05737 4.5114C5.09615 4.37433 5.10696 4.23086 5.08918 4.08953C5.0714 3.94819 5.02538 3.81188 4.95385 3.68869C4.88233 3.56549 4.78676 3.45794 4.67283 3.37243C4.55891 3.28691 4.42895 3.22518 4.29069 3.1909C4.15242 3.15662 4.00868 3.15049 3.868 3.17288C3.72732 3.19527 3.59258 3.24572 3.47179 3.32122C3.351 3.39673 3.24662 3.49576 3.16487 3.61242ZM17 1.77075C13.2671 1.77075 10.2709 4.65509 10.2709 8.17267V17.3272C10.2709 20.8448 13.2671 23.7291 17 23.7291C20.733 23.7291 23.7292 20.8448 23.7292 17.3272V8.17267C23.7292 4.65509 20.733 1.77075 17 1.77075ZM17 21.6041C14.4741 21.6041 12.3959 19.7072 12.3959 17.3272V8.17267C12.3959 5.79267 14.4741 3.89575 17 3.89575C19.526 3.89575 21.6042 5.79267 21.6042 8.17267V17.3272C21.6042 19.7072 19.526 21.6041 17 21.6041Z" fill="#453B6C"/>
<path fill-rule="evenodd" clip-rule="evenodd" d="M16.9998 25.146C12.5458 25.146 8.854 22.1866 8.854 18.4168V15.5835C8.854 15.3017 8.74206 15.0315 8.54281 14.8322C8.34355 14.6329 8.0733 14.521 7.7915 14.521C7.50971 14.521 7.23946 14.6329 7.0402 14.8322C6.84095 15.0315 6.729 15.3017 6.729 15.5835V18.4168C6.729 23.2547 11.2822 27.271 16.9998 27.271C22.7175 27.271 27.2707 23.2547 27.2707 18.4168V15.5835C27.2707 15.3017 27.1587 15.0315 26.9595 14.8322C26.7602 14.6329 26.49 14.521 26.2082 14.521C25.9264 14.521 25.6561 14.6329 25.4569 14.8322C25.2576 15.0315 25.1457 15.3017 25.1457 15.5835V18.4168C25.1457 22.1866 21.4538 25.146 16.9998 25.146Z" fill="#453B6C"/>
<path fill-rule="evenodd" clip-rule="evenodd" d="M15.9374 26.2085V31.1668C15.9374 31.4486 16.0493 31.7189 16.2486 31.9181C16.4478 32.1174 16.7181 32.2293 16.9999 32.2293C17.2817 32.2293 17.5519 32.1174 17.7512 31.9181C17.9504 31.7189 18.0624 31.4486 18.0624 31.1668V26.2085C18.0624 25.9267 17.9504 25.6565 17.7512 25.4572C17.5519 25.2579 17.2817 25.146 16.9999 25.146C16.7181 25.146 16.4478 25.2579 16.2486 25.4572C16.0493 25.6565 15.9374 25.9267 15.9374 26.2085Z" fill="#453B6C"/>
<path fill-rule="evenodd" clip-rule="evenodd" d="M21.2499 30.1045H12.7499C12.4681 30.1045 12.1978 30.2164 11.9986 30.4157C11.7993 30.6149 11.6874 30.8852 11.6874 31.167C11.6874 31.4488 11.7993 31.719 11.9986 31.9183C12.1978 32.1176 12.4681 32.2295 12.7499 32.2295H21.2499C21.5317 32.2295 21.8019 32.1176 22.0012 31.9183C22.2004 31.719 22.3124 31.4488 22.3124 31.167C22.3124 30.8852 22.2004 30.6149 22.0012 30.4157C21.8019 30.2164 21.5317 30.1045 21.2499 30.1045Z" fill="#453B6C"/>
</svg>
