<svg width="34" height="34" viewBox="0 0 34 34" fill="none" xmlns="http://www.w3.org/2000/svg">
<path d="M21.0292 18.8947C19.627 18.8947 18.2248 20.9301 17.5916 21.9704C16.7322 22.4679 14.5158 20.8848 13.5208 19.8897C12.4804 18.8494 10.9878 16.6331 11.4401 15.8189C12.4804 15.1857 14.5158 13.7383 14.5158 12.3813C14.4706 9.35083 9.4047 4.28491 6.41943 4.28491C5.65049 4.28491 4.74587 5.05385 3.70554 6.63694C-0.274819 10.7982 5.60526 19.5731 9.72132 23.6892C14.1992 28.1671 22.7932 33.5044 26.7736 29.705C28.3114 28.7099 29.1256 27.76 29.1256 26.9911C29.1256 23.9606 24.0597 18.8947 21.0292 18.8947ZM25.5523 28.348C23.4717 30.4287 17.094 28.5289 10.9878 22.4227C7.50498 18.9399 1.98675 10.8887 5.06249 7.81296C5.28864 7.49634 6.05758 6.36556 6.50989 6.09417C8.59053 6.22986 12.7066 10.3459 12.7066 12.3361C12.5709 12.9693 10.4903 14.2811 10.2189 14.5072C8.50007 16.226 10.5355 19.4827 12.2543 21.2015C14.0183 22.9655 17.2297 24.9104 18.9485 23.2369C19.1747 22.9655 20.4412 20.9301 21.0744 20.7491C23.1098 20.7944 27.1806 24.8652 27.3163 26.9458C26.9997 27.3529 25.8689 28.1219 25.5523 28.348Z" fill="#453B6C"/>
<path d="M17.5011 6.54648C17.9987 6.54648 18.4058 6.1394 18.4058 5.64185C18.4058 4.5563 19.2651 3.6969 20.3507 3.8326C21.1196 3.92306 21.7981 4.60153 21.8886 5.41569C21.979 6.18463 21.6172 6.90833 20.9839 7.27018C17.6368 9.21513 16.7322 11.341 16.687 11.4315C16.5965 11.7029 16.5965 12.0195 16.7774 12.2909C16.9583 12.517 17.2297 12.6979 17.5464 12.6979H22.6575C23.155 12.6979 23.5621 12.2909 23.5621 11.7933C23.5621 11.2958 23.155 10.8887 22.6575 10.8887H19.2651C19.8079 10.3007 20.6221 9.57698 21.8433 8.89851C23.1098 8.17481 23.8335 6.77264 23.6526 5.28C23.4717 3.60644 22.16 2.2495 20.5316 2.06857C18.3605 1.84241 16.5965 3.56121 16.5965 5.68708C16.5965 6.1394 17.0036 6.54648 17.5011 6.54648ZM30.4825 8.17481H29.9398V6.8631C29.9398 6.36555 29.5327 5.95847 29.0351 5.95847C28.5376 5.95847 28.1305 6.36555 28.1305 6.8631V8.17481H26.2308L28.3114 3.24459C28.4924 2.79227 28.3114 2.2495 27.8139 2.06857C27.3616 1.88765 26.8188 2.06857 26.6379 2.56612L24.0144 8.71759C23.8788 8.98898 23.924 9.30559 24.1049 9.57698C24.2858 9.84837 24.5572 9.98407 24.8738 9.98407H28.1305V11.6124C28.1305 12.1099 28.5376 12.517 29.0351 12.517C29.5327 12.517 29.9398 12.1099 29.9398 11.6124V9.98407H30.4825C30.9801 9.98407 31.3872 9.57698 31.3872 9.07944C31.3872 8.58189 30.9801 8.17481 30.4825 8.17481Z" fill="#453B6C"/>
</svg>
