<svg width="210" height="236" viewBox="0 0 210 236" fill="none" xmlns="http://www.w3.org/2000/svg">
<path d="M207.568 30.153C157.223 30.9544 122.802 13.9642 108.612 3.01481C106.484 1.37308 103.5 1.26063 101.303 2.80838C85.5224 13.9254 49.5777 31.2326 4.25663 30.2395C2.1428 30.1931 0.592458 31.4592 0.464035 33.5696C-0.101729 42.8671 -0.774837 68.5604 2.60894 81.0869C2.68501 81.3685 2.77925 81.6202 2.90572 81.8831C10.3264 97.3081 35.6116 129.105 56.4664 145.818C56.8235 146.104 57.3349 145.943 57.4114 145.492C58.3088 140.202 55.2006 125.541 60.2979 124.373C85.5841 118.579 138.491 132.484 140.825 148.707C141.214 151.411 123.708 189.65 86.7512 181.538C83.639 182.697 75.8587 185.787 72.3575 190.036C70.8014 185.401 74.3804 179.762 74.6916 177.29C54.9986 162.175 14.2562 115.208 7.83854 107.925C7.60996 107.666 7.26026 107.899 7.35612 108.231C28.4493 181.324 81.1801 223.837 105.035 236C156.783 205.797 176.79 166.234 180.592 157.413C181.081 156.279 180.99 155.023 180.459 153.909C142.986 75.2967 70.6816 60.1814 49.2868 57.622C46.0553 57.2354 46.0527 56.7881 49.2533 56.1979C75.0833 51.4345 95.8736 39.4351 102.673 35.3619C104.157 34.4728 105.865 34.5991 107.295 35.5721C140.373 58.073 182.656 59.0572 188.748 59.0955C189.199 59.0983 189.597 59.3105 189.834 59.6949C197.003 71.3439 200.05 99.6707 201.099 109.428L201.102 109.45C201.232 110.66 202.122 110.709 202.447 109.536C211.94 75.2094 210.186 38.6261 209.19 31.4038C209.071 30.5419 208.438 30.1392 207.568 30.153Z" fill="#613DC0"/>
<ellipse cx="6.22349" cy="6.18085" rx="6.22349" ry="6.18085" transform="matrix(0.990912 0.134511 -0.136409 0.990653 71.3302 136.233)" fill="#613DC0"/>
<ellipse cx="6.22349" cy="6.18085" rx="6.22349" ry="6.18085" transform="matrix(0.990912 0.134511 -0.136409 0.990653 93.1212 137.632)" fill="#613DC0"/>
<ellipse cx="6.22349" cy="6.18085" rx="6.22349" ry="6.18085" transform="matrix(0.990912 0.134511 -0.136409 0.990653 112.323 146.477)" fill="#613DC0"/>
</svg>
