<svg width="39" height="44" viewBox="0 0 39 44" fill="none" xmlns="http://www.w3.org/2000/svg">
<path d="M38.0974 4.89859C29.9166 4.96252 24.0486 2.47278 21.0448 0.502842C20.077 -0.131893 18.7744 -0.177389 17.791 0.433077C14.6378 2.39066 8.81775 4.88185 1.63807 4.91805C0.729712 4.92263 0.0803252 5.4696 0.0446867 6.37727C-0.037348 8.4666 -0.0590156 12.2405 0.456577 14.2893C0.48691 14.4099 0.528692 14.5218 0.583486 14.6334C1.99043 17.4979 6.49229 23.198 10.2758 26.315C10.4276 26.44 10.6399 26.3691 10.6521 26.1727C10.7221 25.0497 10.2831 22.664 11.162 22.4612C15.8429 21.381 25.6367 23.9734 26.0687 26.998C26.1408 27.5021 22.9002 34.6314 16.0589 33.1191C15.4828 33.3351 14.0426 33.9112 13.3944 34.7034C13.1064 33.8392 13.7689 32.7878 13.8265 32.327C10.349 29.6388 3.32555 21.5465 1.65463 19.6281C1.55727 19.5163 1.40711 19.6098 1.449 19.752C5.40997 33.1956 15.0602 41.022 19.4435 43.2729C28.3665 38.0277 32.1914 31.2682 33.2425 29.0374C33.4663 28.5623 33.4372 28.0258 33.2065 27.554C26.9302 14.719 15.6737 11.1751 10.5996 10.2427C9.22755 9.99063 9.22785 9.76917 10.5815 9.43178C14.1171 8.55051 16.9906 7.03793 18.4339 6.20408C19.0732 5.83472 19.7934 5.87459 20.4162 6.2711C26.1842 9.94322 33.2023 10.2617 34.7611 10.2886C34.9551 10.2919 35.1363 10.3871 35.2309 10.5564C36.3342 12.5289 36.8879 16.6576 37.1368 18.8549C37.1956 19.374 37.5595 19.4005 37.6848 18.8932C39.1054 13.145 38.9333 7.25653 38.7604 5.44989C38.7247 5.07653 38.4725 4.89566 38.0974 4.89859Z" fill="#453B6C"/>
</svg>
