<svg width="186" height="44" viewBox="0 0 186 44" fill="none" xmlns="http://www.w3.org/2000/svg">
<path d="M38.0974 5.62564C29.9166 5.68957 24.0486 3.19983 21.0448 1.22989C20.077 0.595157 18.7744 0.549661 17.791 1.16013C14.6378 3.11771 8.81775 5.6089 1.63807 5.6451C0.729712 5.64968 0.0803252 6.19665 0.0446867 7.10432C-0.037348 9.19365 -0.0590156 12.9676 0.456577 15.0164C0.48691 15.1369 0.528692 15.2489 0.583486 15.3604C1.99043 18.2249 6.49229 23.9251 10.2758 27.042C10.4276 27.1671 10.6399 27.0961 10.6521 26.8998C10.7221 25.7767 10.2831 23.3911 11.162 23.1882C15.8429 22.108 25.6367 24.7005 26.0687 27.725C26.1408 28.2291 22.9002 35.3584 16.0589 33.8462C15.4828 34.0622 14.0426 34.6383 13.3944 35.4304C13.1064 34.5663 13.7689 33.5149 13.8265 33.054C10.349 30.3658 3.32555 22.2735 1.65463 20.3551C1.55727 20.2433 1.40711 20.3369 1.449 20.479C5.40997 33.9226 15.0602 41.7491 19.4435 44C28.3665 38.7547 32.1914 31.9952 33.2425 29.7644C33.4663 29.2894 33.4372 28.7528 33.2065 28.2811C26.9302 15.4461 15.6737 11.9021 10.5996 10.9698C9.22755 10.7177 9.22785 10.4962 10.5815 10.1588C14.1171 9.27756 16.9906 7.76498 18.4339 6.93113C19.0732 6.56178 19.7934 6.60164 20.4162 6.99815C26.1842 10.6703 33.2023 10.9888 34.7611 11.0156C34.9551 11.019 35.1363 11.1142 35.2309 11.2835C36.3342 13.256 36.8879 17.3847 37.1368 19.5819C37.1956 20.1011 37.5595 20.1275 37.6848 19.6203C39.1054 13.872 38.9333 7.98358 38.7604 6.17694C38.7247 5.80358 38.4725 5.62271 38.0974 5.62564Z" fill="#453B6C"/>
<path d="M52.6382 26.995C51.4848 26.995 50.5982 26.755 49.9782 26.275C49.3648 25.7883 48.9982 25.035 48.8782 24.015C48.8582 23.7683 48.9115 23.5817 49.0382 23.455C49.1715 23.3217 49.3582 23.255 49.5982 23.255C49.8382 23.255 50.0148 23.315 50.1282 23.435C50.2482 23.555 50.3248 23.735 50.3582 23.975C50.4382 24.5617 50.6482 24.9683 50.9882 25.195C51.3348 25.415 51.8848 25.525 52.6382 25.525H55.5182C56.4115 25.525 57.0215 25.3617 57.3482 25.035C57.6815 24.7017 57.8482 24.0983 57.8482 23.225C57.8482 22.3383 57.6782 21.7283 57.3382 21.395C57.0048 21.055 56.3982 20.885 55.5182 20.885H52.9582C51.7248 20.885 50.8115 20.5883 50.2182 19.995C49.6315 19.4017 49.3382 18.4917 49.3382 17.265C49.3382 16.0383 49.6282 15.1317 50.2082 14.545C50.7948 13.9583 51.7048 13.665 52.9382 13.665H55.4582C56.5382 13.665 57.3682 13.895 57.9482 14.355C58.5348 14.8083 58.8882 15.5117 59.0082 16.465C59.0348 16.7117 58.9815 16.9017 58.8482 17.035C58.7215 17.1617 58.5348 17.225 58.2882 17.225C58.0548 17.225 57.8782 17.165 57.7582 17.045C57.6382 16.9183 57.5648 16.7383 57.5382 16.505C57.4582 15.9917 57.2582 15.635 56.9382 15.435C56.6248 15.235 56.1315 15.135 55.4582 15.135H52.9382C52.1115 15.135 51.5482 15.2883 51.2482 15.595C50.9548 15.895 50.8082 16.4517 50.8082 17.265C50.8082 18.0783 50.9582 18.6417 51.2582 18.955C51.5648 19.2617 52.1315 19.415 52.9582 19.415H55.5182C56.8115 19.415 57.7682 19.725 58.3882 20.345C59.0082 20.965 59.3182 21.925 59.3182 23.225C59.3182 24.5183 59.0082 25.4717 58.3882 26.085C57.7682 26.6917 56.8115 26.995 55.5182 26.995H52.6382Z" fill="#453B6C"/>
<path d="M63.6705 31.005C63.1772 31.005 62.9305 30.7583 62.9305 30.265V17.825C62.9305 17.3383 63.1772 17.095 63.6705 17.095C64.1572 17.095 64.4005 17.3383 64.4005 17.825V18.295C64.7405 17.895 65.1805 17.595 65.7205 17.395C66.2605 17.195 66.8972 17.095 67.6305 17.095H68.3905C69.6905 17.095 70.6505 17.405 71.2705 18.025C71.8905 18.645 72.2005 19.605 72.2005 20.905V23.185C72.2005 24.485 71.8905 25.4483 71.2705 26.075C70.6505 26.695 69.6905 27.005 68.3905 27.005H64.4005V30.265C64.4005 30.7583 64.1572 31.005 63.6705 31.005ZM64.4005 25.535H68.3905C69.2905 25.535 69.9039 25.3683 70.2305 25.035C70.5639 24.7017 70.7305 24.085 70.7305 23.185V20.905C70.7305 20.005 70.5639 19.3917 70.2305 19.065C69.9039 18.7317 69.2905 18.565 68.3905 18.565H67.6305C66.7172 18.565 65.9639 18.6883 65.3705 18.935C64.7772 19.175 64.4539 19.555 64.4005 20.075V25.535Z" fill="#453B6C"/>
<path d="M76.8616 22.645V23.205C76.8616 24.0917 77.0283 24.7017 77.3616 25.035C77.6949 25.3683 78.3116 25.535 79.2116 25.535H80.8516C81.5849 25.535 82.1216 25.4583 82.4616 25.305C82.8083 25.145 83.0316 24.8683 83.1316 24.475C83.1849 24.255 83.2683 24.085 83.3816 23.965C83.5016 23.845 83.6783 23.785 83.9116 23.785C84.1583 23.785 84.3449 23.8517 84.4716 23.985C84.5983 24.1117 84.6416 24.2983 84.6016 24.545C84.4749 25.3783 84.0983 25.9983 83.4716 26.405C82.8516 26.805 81.9783 27.005 80.8516 27.005H79.2116C77.9116 27.005 76.9483 26.695 76.3216 26.075C75.7016 25.455 75.3916 24.4983 75.3916 23.205V20.905C75.3916 19.585 75.7016 18.6183 76.3216 18.005C76.9483 17.385 77.9116 17.0817 79.2116 17.095H80.8516C82.1516 17.095 83.1116 17.405 83.7316 18.025C84.3516 18.6383 84.6616 19.5983 84.6616 20.905V21.905C84.6616 22.3983 84.4183 22.645 83.9316 22.645H76.8616ZM79.2116 18.565C78.3116 18.5517 77.6949 18.7117 77.3616 19.045C77.0283 19.3783 76.8616 19.9983 76.8616 20.905V21.175H83.1916V20.905C83.1916 20.005 83.0249 19.3917 82.6916 19.065C82.3649 18.7317 81.7516 18.565 80.8516 18.565H79.2116Z" fill="#453B6C"/>
<path d="M89.3226 22.645V23.205C89.3226 24.0917 89.4892 24.7017 89.8226 25.035C90.1559 25.3683 90.7725 25.535 91.6726 25.535H93.3125C94.0459 25.535 94.5826 25.4583 94.9226 25.305C95.2692 25.145 95.4926 24.8683 95.5926 24.475C95.6459 24.255 95.7292 24.085 95.8426 23.965C95.9626 23.845 96.1392 23.785 96.3726 23.785C96.6192 23.785 96.8059 23.8517 96.9326 23.985C97.0592 24.1117 97.1026 24.2983 97.0625 24.545C96.9359 25.3783 96.5592 25.9983 95.9326 26.405C95.3126 26.805 94.4392 27.005 93.3125 27.005H91.6726C90.3726 27.005 89.4092 26.695 88.7826 26.075C88.1626 25.455 87.8526 24.4983 87.8526 23.205V20.905C87.8526 19.585 88.1626 18.6183 88.7826 18.005C89.4092 17.385 90.3726 17.0817 91.6726 17.095H93.3125C94.6125 17.095 95.5726 17.405 96.1926 18.025C96.8125 18.6383 97.1226 19.5983 97.1226 20.905V21.905C97.1226 22.3983 96.8792 22.645 96.3926 22.645H89.3226ZM91.6726 18.565C90.7725 18.5517 90.1559 18.7117 89.8226 19.045C89.4892 19.3783 89.3226 19.9983 89.3226 20.905V21.175H95.6525V20.905C95.6525 20.005 95.4859 19.3917 95.1525 19.065C94.8259 18.7317 94.2126 18.565 93.3125 18.565H91.6726Z" fill="#453B6C"/>
<path d="M104.133 27.005C102.833 27.005 101.87 26.695 101.243 26.075C100.623 25.4483 100.313 24.485 100.313 23.185V20.885C100.313 19.585 100.62 18.625 101.233 18.005C101.853 17.385 102.82 17.0817 104.133 17.095H105.773C106.76 17.095 107.53 17.2617 108.083 17.595C108.637 17.9283 108.983 18.4417 109.123 19.135C109.17 19.3817 109.123 19.5717 108.983 19.705C108.85 19.8383 108.657 19.905 108.403 19.905C108.177 19.905 108.01 19.8483 107.903 19.735C107.797 19.615 107.703 19.4483 107.623 19.235C107.53 18.9883 107.34 18.815 107.053 18.715C106.773 18.615 106.347 18.565 105.773 18.565H104.133C103.24 18.5517 102.623 18.7117 102.283 19.045C101.95 19.3717 101.783 19.985 101.783 20.885V23.185C101.783 24.085 101.95 24.7017 102.283 25.035C102.623 25.3683 103.24 25.535 104.133 25.535H105.773C106.347 25.535 106.773 25.485 107.053 25.385C107.34 25.285 107.53 25.1083 107.623 24.855C107.703 24.635 107.797 24.4683 107.903 24.355C108.01 24.2417 108.18 24.185 108.413 24.185C108.66 24.185 108.85 24.255 108.983 24.395C109.123 24.5283 109.17 24.715 109.123 24.955C108.983 25.6483 108.637 26.165 108.083 26.505C107.53 26.8383 106.76 27.005 105.773 27.005H104.133Z" fill="#453B6C"/>
<path d="M113.28 27.005C112.787 27.005 112.54 26.7583 112.54 26.265V13.725C112.54 13.2383 112.787 12.995 113.28 12.995C113.767 12.995 114.01 13.2383 114.01 13.725V18.365C114.69 17.5183 115.767 17.095 117.24 17.095H117.8C119.1 17.095 120.06 17.405 120.68 18.025C121.3 18.645 121.61 19.605 121.61 20.905V26.265C121.61 26.7583 121.367 27.005 120.88 27.005C120.387 27.005 120.14 26.7583 120.14 26.265V20.905C120.14 20.005 119.97 19.3917 119.63 19.065C119.297 18.7317 118.687 18.565 117.8 18.565H117.24C116.36 18.565 115.623 18.6817 115.03 18.915C114.437 19.1417 114.097 19.5017 114.01 19.995V26.265C114.01 26.7583 113.767 27.005 113.28 27.005Z" fill="#453B6C"/>
<path d="M128.791 26.995C127.637 26.995 126.751 26.755 126.131 26.275C125.517 25.7883 125.151 25.035 125.031 24.015C125.011 23.7683 125.064 23.5817 125.191 23.455C125.324 23.3217 125.511 23.255 125.751 23.255C125.991 23.255 126.167 23.315 126.281 23.435C126.401 23.555 126.477 23.735 126.511 23.975C126.591 24.5617 126.801 24.9683 127.141 25.195C127.487 25.415 128.037 25.525 128.791 25.525H131.671C132.564 25.525 133.174 25.3617 133.501 25.035C133.834 24.7017 134.001 24.0983 134.001 23.225C134.001 22.3383 133.831 21.7283 133.491 21.395C133.157 21.055 132.551 20.885 131.671 20.885H129.111C127.877 20.885 126.964 20.5883 126.371 19.995C125.784 19.4017 125.491 18.4917 125.491 17.265C125.491 16.0383 125.781 15.1317 126.361 14.545C126.947 13.9583 127.857 13.665 129.091 13.665H131.611C132.691 13.665 133.521 13.895 134.101 14.355C134.687 14.8083 135.041 15.5117 135.161 16.465C135.187 16.7117 135.134 16.9017 135.001 17.035C134.874 17.1617 134.687 17.225 134.441 17.225C134.207 17.225 134.031 17.165 133.911 17.045C133.791 16.9183 133.717 16.7383 133.691 16.505C133.611 15.9917 133.411 15.635 133.091 15.435C132.777 15.235 132.284 15.135 131.611 15.135H129.091C128.264 15.135 127.701 15.2883 127.401 15.595C127.107 15.895 126.961 16.4517 126.961 17.265C126.961 18.0783 127.111 18.6417 127.411 18.955C127.717 19.2617 128.284 19.415 129.111 19.415H131.671C132.964 19.415 133.921 19.725 134.541 20.345C135.161 20.965 135.471 21.925 135.471 23.225C135.471 24.5183 135.161 25.4717 134.541 26.085C133.921 26.6917 132.964 26.995 131.671 26.995H128.791Z" fill="#453B6C"/>
<path d="M139.823 27.005C139.33 27.005 139.083 26.7583 139.083 26.265V13.725C139.083 13.2383 139.33 12.995 139.823 12.995C140.31 12.995 140.553 13.2383 140.553 13.725V18.365C141.233 17.5183 142.31 17.095 143.783 17.095H144.343C145.643 17.095 146.603 17.405 147.223 18.025C147.843 18.645 148.153 19.605 148.153 20.905V26.265C148.153 26.7583 147.91 27.005 147.423 27.005C146.93 27.005 146.683 26.7583 146.683 26.265V20.905C146.683 20.005 146.513 19.3917 146.173 19.065C145.84 18.7317 145.23 18.565 144.343 18.565H143.783C142.903 18.565 142.166 18.6817 141.573 18.915C140.98 19.1417 140.64 19.5017 140.553 19.995V26.265C140.553 26.7583 140.31 27.005 139.823 27.005Z" fill="#453B6C"/>
<path d="M152.443 15.395C151.87 15.395 151.583 15.1017 151.583 14.515V13.975C151.583 13.4017 151.87 13.115 152.443 13.115H152.983C153.537 13.115 153.813 13.4017 153.813 13.975V14.515C153.813 15.1017 153.537 15.395 152.983 15.395H152.443ZM152.713 27.005C152.22 27.005 151.973 26.7583 151.973 26.265V17.825C151.973 17.3383 152.22 17.095 152.713 17.095C153.2 17.095 153.443 17.3383 153.443 17.825V26.265C153.443 26.7583 153.2 27.005 152.713 27.005Z" fill="#453B6C"/>
<path d="M158.522 22.645V23.205C158.522 24.0917 158.688 24.7017 159.022 25.035C159.355 25.3683 159.972 25.535 160.872 25.535H162.512C163.245 25.535 163.782 25.4583 164.122 25.305C164.468 25.145 164.692 24.8683 164.792 24.475C164.845 24.255 164.928 24.085 165.042 23.965C165.162 23.845 165.338 23.785 165.572 23.785C165.818 23.785 166.005 23.8517 166.132 23.985C166.258 24.1117 166.302 24.2983 166.262 24.545C166.135 25.3783 165.758 25.9983 165.132 26.405C164.512 26.805 163.638 27.005 162.512 27.005H160.872C159.572 27.005 158.608 26.695 157.982 26.075C157.362 25.455 157.052 24.4983 157.052 23.205V20.905C157.052 19.585 157.362 18.6183 157.982 18.005C158.608 17.385 159.572 17.0817 160.872 17.095H162.512C163.812 17.095 164.772 17.405 165.392 18.025C166.012 18.6383 166.322 19.5983 166.322 20.905V21.905C166.322 22.3983 166.078 22.645 165.592 22.645H158.522ZM160.872 18.565C159.972 18.5517 159.355 18.7117 159.022 19.045C158.688 19.3783 158.522 19.9983 158.522 20.905V21.175H164.852V20.905C164.852 20.005 164.685 19.3917 164.352 19.065C164.025 18.7317 163.412 18.565 162.512 18.565H160.872Z" fill="#453B6C"/>
<path d="M172.853 27.005C171.859 27.005 171.123 26.765 170.643 26.285C170.163 25.7983 169.923 25.0583 169.923 24.065V13.725C169.923 13.2383 170.169 12.995 170.663 12.995C171.149 12.995 171.393 13.2383 171.393 13.725V24.065C171.393 24.645 171.489 25.035 171.683 25.235C171.883 25.435 172.273 25.535 172.853 25.535C173.353 25.535 173.603 25.7783 173.603 26.265C173.616 26.7583 173.366 27.005 172.853 27.005Z" fill="#453B6C"/>
<path d="M179.466 27.005C178.166 27.005 177.202 26.695 176.576 26.075C175.956 25.4483 175.646 24.485 175.646 23.185V20.905C175.646 19.605 175.956 18.645 176.576 18.025C177.202 17.405 178.166 17.095 179.466 17.095H183.446V13.725C183.446 13.2383 183.692 12.995 184.186 12.995C184.672 12.995 184.916 13.2383 184.916 13.725V26.265C184.916 26.7583 184.672 27.005 184.186 27.005C183.692 27.005 183.446 26.7583 183.446 26.265V25.885C183.139 26.2517 182.726 26.5317 182.206 26.725C181.686 26.9117 181.026 27.005 180.226 27.005H179.466ZM179.466 25.535H180.226C181.159 25.535 181.929 25.405 182.536 25.145C183.142 24.885 183.446 24.4883 183.446 23.955V18.565H179.466C178.566 18.565 177.949 18.735 177.616 19.075C177.282 19.4083 177.116 20.0183 177.116 20.905V23.185C177.116 24.085 177.282 24.7017 177.616 25.035C177.956 25.3683 178.572 25.535 179.466 25.535Z" fill="#453B6C"/>
<circle cx="14.1898" cy="26.697" r="1.15221" transform="rotate(7.78504 14.1898 26.697)" fill="#453B6C"/>
<circle cx="18.2236" cy="26.9577" r="1.15221" transform="rotate(7.78504 18.2236 26.9577)" fill="#453B6C"/>
<circle cx="21.7782" cy="28.6065" r="1.15221" transform="rotate(7.78504 21.7782 28.6065)" fill="#453B6C"/>
</svg>
